<svg width="24" height="24" viewBox="0 0 24 24" fill="none" xmlns="http://www.w3.org/2000/svg">
<path d="M12.75 8.25C12.75 7.83579 12.4142 7.5 12 7.5C11.5858 7.5 11.25 7.83579 11.25 8.25H12H12.75ZM9.4543 14.8568C9.17015 15.1582 9.18412 15.6329 9.4855 15.917C9.78689 16.2012 10.2616 16.1872 10.5457 15.8858L10 15.3713L9.4543 14.8568ZM11.4552 13.8278L10.9095 13.3133L11.4552 13.8278ZM12 8.25H11.25V12.4558H12H12.75V8.25H12ZM10 15.3713L10.5457 15.8858L12.0009 14.3423L11.4552 13.8278L10.9095 13.3133L9.4543 14.8568L10 15.3713ZM22 12.25H21.25C21.25 17.3586 17.1086 21.5 12 21.5V22.25V23C17.9371 23 22.75 18.1871 22.75 12.25H22ZM12 22.25V21.5C6.89137 21.5 2.75 17.3586 2.75 12.25H2H1.25C1.25 18.1871 6.06294 23 12 23V22.25ZM2 12.25H2.75C2.75 7.14137 6.89137 3 12 3V2.25V1.5C6.06294 1.5 1.25 6.31294 1.25 12.25H2ZM12 2.25V3C17.1086 3 21.25 7.14137 21.25 12.25H22H22.75C22.75 6.31294 17.9371 1.5 12 1.5V2.25ZM12 12.4558H11.25C11.25 12.7746 11.1282 13.0814 10.9095 13.3133L11.4552 13.8278L12.0009 14.3423C12.482 13.832 12.75 13.1572 12.75 12.4558H12Z" fill="#DCE8FF"/>
</svg>
